<?xml version="1.0" encoding="UTF-8" ?>
<!DOCTYPE svg PUBLIC "-//W3C//DTD SVG 1.1//EN" "http://www.w3.org/Graphics/SVG/1.1/DTD/svg11.dtd">
<svg width="512pt" height="512pt" viewBox="0 0 512 512" version="1.1" xmlns="http://www.w3.org/2000/svg">
<g id="#f4f5f5ff">
<path fill="#f4f5f5" opacity="1.00" d=" M 90.20 51.29 C 196.15 51.08 302.11 51.26 408.07 51.20 C 416.59 51.35 425.47 50.40 433.58 53.63 C 447.20 58.35 457.72 70.83 460.13 85.03 C 460.93 89.29 460.79 93.64 460.80 97.96 C 460.79 205.30 460.82 312.65 460.79 419.99 C 460.75 431.38 455.70 442.63 447.19 450.21 C 439.85 456.92 429.97 460.72 420.03 460.79 C 311.01 460.82 202.00 460.79 92.98 460.80 C 82.47 460.96 71.93 456.99 64.32 449.72 C 55.80 441.97 50.98 430.46 51.20 418.96 C 51.21 309.96 51.18 200.96 51.21 91.95 C 51.19 78.15 58.77 64.68 70.52 57.48 C 76.38 53.74 83.25 51.60 90.20 51.29 M 114.63 126.54 C 125.68 137.57 136.73 148.60 147.75 159.66 C 141.09 162.34 134.71 165.70 128.44 169.18 C 106.42 181.33 86.12 196.54 68.29 214.28 C 76.28 222.35 84.36 230.33 92.36 238.39 C 110.37 220.70 131.01 205.51 153.83 194.63 C 160.17 191.77 166.46 188.80 172.98 186.37 L 173.68 185.58 C 182.74 194.65 191.82 203.68 200.85 212.77 C 193.53 214.63 186.40 217.24 179.48 220.26 C 156.09 230.11 134.67 244.51 116.67 262.40 C 124.36 270.73 132.71 278.58 140.70 286.68 C 158.91 268.49 181.46 254.68 206.00 246.87 C 213.62 244.88 221.31 242.50 229.20 241.48 L 228.28 240.20 C 239.33 251.20 250.35 262.23 261.35 273.28 C 252.34 272.71 243.19 273.27 234.32 275.00 C 208.23 279.40 183.41 291.97 164.91 310.93 C 172.90 318.95 180.92 326.95 188.92 334.96 C 208.96 314.77 238.30 304.56 266.56 307.78 C 280.51 309.88 294.32 314.12 306.28 321.80 C 310.49 324.26 314.12 327.55 318.20 330.19 C 333.36 345.18 348.42 360.28 363.45 375.40 C 371.64 367.51 379.61 359.35 387.65 351.30 C 304.69 268.33 221.75 185.34 138.75 102.42 C 130.69 110.44 122.63 118.46 114.63 126.54 M 224.20 138.65 C 224.16 138.85 224.10 139.27 224.07 139.47 C 234.55 149.85 244.94 160.31 255.38 170.73 C 267.93 171.02 280.53 171.62 292.93 173.80 C 340.50 181.23 385.48 204.18 419.44 238.31 C 427.77 230.61 435.65 222.29 443.72 214.26 C 429.59 200.17 413.92 187.62 396.99 177.04 C 346.07 144.86 283.93 131.43 224.20 138.65 M 293.06 208.41 C 319.13 234.53 345.25 260.58 371.31 286.70 C 379.38 278.68 387.49 270.67 395.42 262.51 C 367.74 234.76 331.60 215.60 293.06 208.41 M 237.84 365.78 C 232.10 371.45 229.22 379.98 230.58 387.95 C 231.91 396.68 238.04 404.53 246.28 407.75 L 246.30 407.82 C 251.37 409.55 256.90 410.22 262.14 408.83 C 271.57 406.61 279.29 398.56 281.08 389.04 C 282.16 384.12 281.40 379.03 279.84 374.30 L 279.76 374.29 C 276.79 366.74 269.95 360.88 262.07 359.03 C 253.55 356.74 244.03 359.57 237.84 365.78 Z" />
</g>
<g id="#e53a34ff">
<path fill="#e53a34" opacity="1.00" d=" M 114.63 126.54 C 122.63 118.46 130.69 110.44 138.75 102.42 C 221.75 185.34 304.69 268.33 387.65 351.30 C 379.61 359.35 371.64 367.51 363.45 375.40 C 348.42 360.28 333.36 345.18 318.20 330.19 C 299.28 311.19 280.27 292.28 261.35 273.28 C 250.35 262.23 239.33 251.20 228.28 240.20 C 219.11 231.08 209.96 221.95 200.85 212.77 C 191.82 203.68 182.74 194.65 173.68 185.58 C 164.99 176.99 156.36 168.34 147.75 159.66 C 136.73 148.60 125.68 137.57 114.63 126.54 Z" />
</g>
<g id="#2cabe1ff">
<path fill="#2cabe1" opacity="1.00" d=" M 224.20 138.65 C 283.93 131.43 346.07 144.86 396.99 177.04 C 413.92 187.62 429.59 200.17 443.72 214.26 C 435.65 222.29 427.77 230.61 419.44 238.31 C 385.48 204.18 340.50 181.23 292.93 173.80 C 280.53 171.62 267.93 171.02 255.38 170.73 C 244.94 160.31 234.55 149.85 224.07 139.47 C 224.10 139.27 224.16 138.85 224.20 138.65 Z" />
<path fill="#2cabe1" opacity="1.00" d=" M 68.29 214.28 C 86.12 196.54 106.42 181.33 128.44 169.18 C 136.78 177.78 145.31 186.20 153.83 194.63 C 131.01 205.51 110.37 220.70 92.36 238.39 C 84.36 230.33 76.28 222.35 68.29 214.28 Z" />
<path fill="#2cabe1" opacity="1.00" d=" M 293.06 208.41 C 331.60 215.60 367.74 234.76 395.42 262.51 C 387.49 270.67 379.38 278.68 371.31 286.70 C 345.25 260.58 319.13 234.53 293.06 208.41 Z" />
<path fill="#2cabe1" opacity="1.00" d=" M 116.67 262.40 C 134.67 244.51 156.09 230.11 179.48 220.26 C 188.24 229.21 197.17 237.99 206.00 246.87 C 181.46 254.68 158.91 268.49 140.70 286.68 C 132.71 278.58 124.36 270.73 116.67 262.40 Z" />
<path fill="#2cabe1" opacity="1.00" d=" M 164.91 310.93 C 183.41 291.97 208.23 279.40 234.32 275.00 C 244.82 286.17 256.21 296.48 266.56 307.78 C 238.30 304.56 208.96 314.77 188.92 334.96 C 180.92 326.95 172.90 318.95 164.91 310.93 Z" />
<path fill="#2cabe1" opacity="1.00" d=" M 261.56 374.49 C 267.38 372.16 273.82 372.77 279.76 374.29 L 279.84 374.30 C 281.40 379.03 282.16 384.12 281.08 389.04 C 279.29 398.56 271.57 406.61 262.14 408.83 C 256.90 410.22 251.37 409.55 246.30 407.82 L 246.28 407.75 C 245.35 403.55 244.43 399.22 245.14 394.90 C 246.32 385.76 252.91 377.63 261.56 374.49 Z" />
</g>
<g id="#0077bdff">
<path fill="#0077bd" opacity="1.00" d=" M 128.44 169.18 C 134.71 165.70 141.09 162.34 147.75 159.66 C 156.36 168.34 164.99 176.99 173.68 185.58 L 172.98 186.37 C 166.46 188.80 160.17 191.77 153.83 194.63 C 145.31 186.20 136.78 177.78 128.44 169.18 Z" />
<path fill="#0077bd" opacity="1.00" d=" M 179.48 220.26 C 186.40 217.24 193.53 214.63 200.85 212.77 C 209.96 221.95 219.11 231.08 228.28 240.20 L 229.20 241.48 C 221.31 242.50 213.62 244.88 206.00 246.87 C 197.17 237.99 188.24 229.21 179.48 220.26 Z" />
<path fill="#0077bd" opacity="1.00" d=" M 234.32 275.00 C 243.19 273.27 252.34 272.71 261.35 273.28 C 280.27 292.28 299.28 311.19 318.20 330.19 C 314.12 327.55 310.49 324.26 306.28 321.80 C 294.32 314.12 280.51 309.88 266.56 307.78 C 256.21 296.48 244.82 286.17 234.32 275.00 Z" />
<path fill="#0077bd" opacity="1.00" d=" M 237.84 365.78 C 244.03 359.57 253.55 356.74 262.07 359.03 C 269.95 360.88 276.79 366.74 279.76 374.29 C 273.82 372.77 267.38 372.16 261.56 374.49 C 252.91 377.63 246.32 385.76 245.14 394.90 C 244.43 399.22 245.35 403.55 246.28 407.75 C 238.04 404.53 231.91 396.68 230.58 387.95 C 229.22 379.98 232.10 371.45 237.84 365.78 Z" />
</g>
</svg>
