<?xml version="1.0" standalone="no"?>
<!DOCTYPE svg PUBLIC "-//W3C//DTD SVG 20010904//EN"
 "http://www.w3.org/TR/2001/REC-SVG-20010904/DTD/svg10.dtd">
<svg version="1.0" xmlns="http://www.w3.org/2000/svg"
 width="512.000000pt" height="512.000000pt" viewBox="0 0 512.000000 512.000000"
 preserveAspectRatio="xMidYMid meet">

<g transform="translate(0.000000,512.000000) scale(0.100000,-0.100000)"
fill="#000000" stroke="none">
<path d="M1346 4789 c-476 -50 -867 -389 -986 -856 -36 -138 -41 -294 -38
-1088 3 -717 4 -762 21 -789 37 -56 34 -56 672 -56 l585 0 0 -129 0 -130 -352
-3 c-336 -4 -356 -5 -423 -27 -428 -140 -622 -612 -414 -1011 88 -171 255
-302 447 -351 73 -18 126 -19 1702 -19 1585 0 1629 1 1704 20 246 63 443 259
507 507 40 156 20 351 -49 490 -88 174 -225 292 -417 360 l-80 28 -352 3 -353
3 0 130 0 129 585 0 c637 0 632 0 670 56 18 26 20 50 23 244 4 238 -3 278 -51
314 -28 21 -40 21 -592 26 l-563 5 361 748 362 749 5 -364 c4 -318 7 -367 22
-389 18 -28 51 -44 112 -54 54 -9 93 -50 101 -108 18 -118 -28 -195 -109 -184
-64 9 -86 42 -86 130 0 85 -21 128 -74 153 -45 22 -95 12 -132 -27 -28 -30
-29 -33 -29 -137 0 -95 3 -113 26 -163 34 -72 96 -134 168 -168 47 -22 69 -26
141 -26 71 1 94 5 141 28 62 30 126 93 158 155 50 99 48 289 -4 393 -32 62
-98 128 -154 153 l-41 19 0 577 0 577 -23 34 c-37 56 -68 61 -352 57 -212 -3
-255 -6 -275 -19 -14 -9 -351 -494 -749 -1078 l-724 -1061 -59 0 -58 0 0 1034
0 1033 -23 34 c-13 19 -38 39 -57 46 -41 14 -765 16 -894 2z m132 -796 c-3
-539 -4 -570 -22 -607 -43 -87 -122 -137 -223 -144 l-63 -4 0 115 0 115 44 26
c177 103 208 354 63 499 -113 113 -307 123 -426 20 -145 -124 -155 -337 -23
-469 23 -23 55 -47 72 -54 l30 -12 0 -119 0 -119 -186 0 -186 0 5 273 c6 318
16 378 96 542 145 296 449 491 789 504 l32 1 -2 -567z m602 -598 l0 -1155
-755 0 -755 0 0 380 0 379 388 3 c378 3 388 4 444 26 126 51 243 168 288 289
35 93 39 176 40 716 l0 517 175 0 175 0 0 -1155z m2125 -1910 c161 -42 291
-171 335 -334 16 -61 13 -186 -6 -251 -43 -148 -159 -266 -305 -311 -59 -18
-119 -19 -1670 -19 -1603 0 -1610 0 -1671 21 -150 50 -261 165 -303 313 -13
43 -16 85 -13 155 3 86 8 105 40 172 59 126 168 218 299 253 84 23 3207 23
3294 1z"/>
<path d="M940 1400 c-121 -44 -214 -152 -247 -284 -52 -211 95 -426 320 -467
163 -30 337 62 414 218 26 53 28 67 28 168 0 104 -2 113 -32 170 -40 77 -112
147 -188 182 -81 37 -212 43 -295 13z"/>
<path d="M1953 1406 c-283 -92 -363 -461 -143 -660 196 -176 501 -115 614 124
28 59 31 74 31 165 0 88 -3 107 -27 157 -37 80 -107 152 -187 191 -57 28 -77
32 -156 34 -55 2 -106 -3 -132 -11z"/>
<path d="M2955 1407 c-175 -58 -286 -222 -272 -404 7 -93 40 -166 106 -236
156 -165 406 -165 562 0 184 195 124 509 -120 621 -67 31 -209 41 -276 19z"/>
<path d="M3929 1397 c-102 -43 -173 -110 -218 -206 -23 -49 -26 -69 -26 -156
0 -91 3 -106 31 -165 76 -159 247 -251 412 -221 172 32 296 157 325 328 28
161 -64 333 -218 408 -51 25 -73 30 -155 33 -82 2 -103 -1 -151 -21z"/>
</g>
</svg>
