<?xml version="1.0" encoding="UTF-8" ?>
<!DOCTYPE svg PUBLIC "-//W3C//DTD SVG 1.1//EN" "http://www.w3.org/Graphics/SVG/1.1/DTD/svg11.dtd">
<svg width="512pt" height="512pt" viewBox="0 0 512 512" version="1.1" xmlns="http://www.w3.org/2000/svg">
<g id="#e8b800ff">
<path fill="#e8b800" opacity="1.00" d=" M 0.00 45.77 C 1.27 43.71 3.36 42.08 5.89 42.29 C 19.56 42.30 33.24 42.19 46.91 42.36 C 43.21 45.18 43.83 49.99 43.83 54.09 C 43.97 59.08 42.95 64.70 46.59 68.75 C 35.62 68.78 24.65 68.70 13.68 68.78 C 9.03 68.51 2.76 70.31 0.00 65.29 L 0.00 45.77 Z" />
<path fill="#e8b800" opacity="1.00" d=" M 13.70 166.48 C 26.11 166.17 38.54 166.37 50.95 166.35 C 126.85 166.62 202.75 166.29 278.64 166.51 C 283.02 166.11 287.57 169.36 287.49 174.00 C 287.69 178.70 283.10 182.11 278.64 181.67 C 202.76 181.72 126.87 181.55 50.98 181.78 C 38.55 181.81 26.12 181.92 13.69 181.69 C 11.47 181.53 9.03 181.26 7.37 179.59 C 4.36 176.92 4.17 171.77 7.05 168.93 C 8.69 167.00 11.33 166.67 13.70 166.48 Z" />
<path fill="#e8b800" opacity="1.00" d=" M 5.00 307.06 C 4.47 302.25 9.11 298.49 13.70 298.90 C 26.11 299.10 38.52 299.01 50.93 298.96 C 70.63 299.09 90.32 298.92 110.02 299.04 C 110.01 304.02 110.01 309.01 110.02 313.99 C 90.34 313.99 70.66 314.01 50.98 314.00 C 38.56 314.04 26.13 313.91 13.70 314.09 C 9.52 314.42 5.18 311.45 5.00 307.06 Z" />
<path fill="#e8b800" opacity="1.00" d=" M 0.00 446.75 C 2.71 441.65 9.03 443.50 13.68 443.22 C 24.64 443.27 35.61 443.27 46.57 443.19 C 45.20 445.24 43.66 447.38 43.87 449.99 C 43.88 455.29 43.55 460.64 44.16 465.92 C 44.40 467.92 46.64 468.57 48.06 469.57 C 34.04 469.89 20.00 469.66 5.98 469.71 C 3.42 469.93 1.30 468.32 0.00 466.24 L 0.00 446.75 Z" />
</g>
<g id="#fac600ff">
<path fill="#fac600" opacity="1.00" d=" M 43.83 54.09 C 43.83 49.99 43.21 45.18 46.91 42.36 C 52.60 42.68 58.30 42.49 64.00 42.53 C 138.00 42.53 212.01 42.54 286.02 42.53 C 288.87 42.17 292.17 43.90 292.34 47.04 C 292.61 52.34 292.47 57.66 292.42 62.97 C 292.63 65.63 290.56 68.25 287.85 68.41 C 284.79 68.68 281.70 68.47 278.64 68.59 C 269.77 69.12 260.89 68.79 252.02 68.86 C 189.67 68.84 127.33 68.86 64.99 68.87 C 60.37 68.79 55.75 68.78 51.14 69.09 C 50.82 101.50 51.09 133.93 50.95 166.35 C 38.54 166.37 26.11 166.17 13.70 166.48 C 13.65 133.91 13.69 101.35 13.68 68.78 C 24.65 68.70 35.62 68.78 46.59 68.75 C 42.95 64.70 43.97 59.08 43.83 54.09 Z" />
<path fill="#fac600" opacity="1.00" d=" M 13.69 181.69 C 26.12 181.92 38.55 181.81 50.98 181.78 C 50.96 220.84 51.03 259.90 50.93 298.96 C 38.52 299.01 26.11 299.10 13.70 298.90 C 13.65 259.83 13.67 220.76 13.69 181.69 Z" />
<path fill="#fac600" opacity="1.00" d=" M 13.70 314.09 C 26.13 313.91 38.56 314.04 50.98 314.00 C 50.99 352.66 51.00 391.33 51.00 429.99 C 50.90 434.58 50.87 439.17 51.20 443.75 C 70.81 444.08 90.42 443.68 110.02 443.92 C 109.96 452.48 110.18 461.05 109.87 469.61 C 89.27 469.34 68.66 469.42 48.06 469.57 C 46.64 468.57 44.40 467.92 44.16 465.92 C 43.55 460.64 43.88 455.29 43.87 449.99 C 43.66 447.38 45.20 445.24 46.57 443.19 C 35.61 443.27 24.64 443.27 13.68 443.22 C 13.69 400.18 13.65 357.14 13.70 314.09 Z" />
</g>
<g id="#fed402ff">
<path fill="#fed402" opacity="1.00" d=" M 51.14 69.09 C 55.75 68.78 60.37 68.79 64.99 68.87 C 127.33 68.86 189.67 68.84 252.02 68.86 C 260.89 68.79 269.77 69.12 278.64 68.59 C 278.64 77.76 278.64 86.93 278.64 96.11 C 278.64 104.75 278.64 113.40 278.64 122.04 C 278.64 136.87 278.64 151.69 278.64 166.51 C 202.75 166.29 126.85 166.62 50.95 166.35 C 51.09 133.93 50.82 101.50 51.14 69.09 Z" />
<path fill="#fed402" opacity="1.00" d=" M 50.98 181.78 C 126.87 181.55 202.76 181.72 278.64 181.67 C 278.63 189.78 278.64 197.88 278.64 205.99 C 278.64 210.99 278.64 215.99 278.64 221.00 C 278.64 235.91 278.63 250.82 278.64 265.73 C 253.44 265.81 228.24 265.66 203.03 265.45 C 184.65 265.83 166.25 265.87 147.86 265.57 C 138.24 265.41 128.61 265.58 118.99 265.47 C 116.42 265.62 113.27 265.23 111.39 267.36 C 109.93 268.85 110.06 271.05 109.99 272.97 C 110.04 281.66 110.04 290.35 110.02 299.04 C 90.32 298.92 70.63 299.09 50.93 298.96 C 51.03 259.90 50.96 220.84 50.98 181.78 Z" />
<path fill="#fed402" opacity="1.00" d=" M 50.98 314.00 C 70.66 314.01 90.34 313.99 110.02 313.99 C 110.04 357.30 110.03 400.61 110.02 443.92 C 90.42 443.68 70.81 444.08 51.20 443.75 C 50.87 439.17 50.90 434.58 51.00 429.99 C 51.00 391.33 50.99 352.66 50.98 314.00 Z" />
</g>
<g id="#0172fbff">
<path fill="#0172fb" opacity="1.00" d=" M 278.64 96.11 C 289.08 96.16 299.53 95.99 309.97 96.20 C 305.51 99.86 307.08 105.96 306.81 110.99 C 306.63 114.70 306.97 118.46 308.48 121.90 C 298.54 122.29 288.59 121.96 278.64 122.04 C 278.64 113.40 278.64 104.75 278.64 96.11 Z" />
<path fill="#0172fb" opacity="1.00" d=" M 278.64 205.99 C 288.30 205.92 297.96 205.95 307.63 205.92 C 371.14 205.68 434.66 206.07 498.17 205.73 C 501.97 206.01 505.45 209.07 505.48 213.03 C 505.76 217.17 502.18 220.60 498.18 220.88 C 434.48 220.89 370.77 220.74 307.07 220.96 C 297.59 220.93 288.12 220.90 278.64 221.00 C 278.64 215.99 278.64 210.99 278.64 205.99 Z" />
<path fill="#0172fb" opacity="1.00" d=" M 313.92 319.00 C 375.34 318.80 436.75 319.16 498.16 318.83 C 501.91 319.16 505.40 322.12 505.47 326.05 C 505.80 330.22 502.22 333.73 498.19 334.00 C 436.77 333.92 375.34 333.94 313.92 333.98 C 313.92 328.98 313.92 323.99 313.92 319.00 Z" />
</g>
<g id="#0182fcff">
<path fill="#0182fc" opacity="1.00" d=" M 309.97 96.20 C 375.32 96.52 440.67 96.22 506.02 96.35 C 508.76 96.07 511.09 97.89 512.00 100.40 L 512.00 117.95 C 511.37 119.84 510.16 121.84 508.00 122.14 C 504.74 122.55 501.45 122.31 498.18 122.30 C 437.45 121.90 376.71 122.29 315.98 122.07 C 313.02 121.98 310.10 122.48 307.25 123.22 C 307.05 146.81 307.19 170.40 307.11 194.00 C 306.99 197.98 307.13 201.97 307.63 205.92 C 297.96 205.95 288.30 205.92 278.64 205.99 C 278.64 197.88 278.63 189.78 278.64 181.67 C 283.10 182.11 287.69 178.70 287.49 174.00 C 287.57 169.36 283.02 166.11 278.64 166.51 C 278.64 151.69 278.64 136.87 278.64 122.04 C 288.59 121.96 298.54 122.29 308.48 121.90 C 306.97 118.46 306.63 114.70 306.81 110.99 C 307.08 105.96 305.51 99.86 309.97 96.20 Z" />
<path fill="#0182fc" opacity="1.00" d=" M 278.64 221.00 C 288.12 220.90 297.59 220.93 307.07 220.96 C 307.40 235.46 306.83 249.98 307.36 264.47 C 308.28 264.92 309.19 265.39 310.11 265.86 C 299.62 265.56 289.13 265.82 278.64 265.73 C 278.63 250.82 278.64 235.91 278.64 221.00 Z" />
<path fill="#0182fc" opacity="1.00" d=" M 462.75 443.30 C 474.55 443.18 486.37 443.00 498.16 443.41 C 502.86 443.92 509.92 441.61 512.00 447.51 L 512.00 465.18 C 511.32 467.40 509.53 469.48 507.02 469.40 C 500.98 469.61 494.94 469.39 488.90 469.46 C 480.28 460.64 471.43 452.05 462.75 443.30 Z" />
</g>
<g id="#0593fcff">
<path fill="#0593fc" opacity="1.00" d=" M 307.25 123.22 C 310.10 122.48 313.02 121.98 315.98 122.07 C 376.71 122.29 437.45 121.90 498.18 122.30 C 498.17 150.11 498.18 177.92 498.17 205.73 C 434.66 206.07 371.14 205.68 307.63 205.92 C 307.13 201.97 306.99 197.98 307.11 194.00 C 307.19 170.40 307.05 146.81 307.25 123.22 Z" />
<path fill="#0593fc" opacity="1.00" d=" M 307.07 220.96 C 370.77 220.74 434.48 220.89 498.18 220.88 C 498.15 253.53 498.19 286.18 498.16 318.83 C 436.75 319.16 375.34 318.80 313.92 319.00 C 313.87 302.98 314.02 286.97 313.86 270.96 C 314.00 268.56 312.19 266.70 310.11 265.86 C 309.19 265.39 308.28 264.92 307.36 264.47 C 306.83 249.98 307.40 235.46 307.07 220.96 Z" />
<path fill="#0593fc" opacity="1.00" d=" M 313.92 333.98 C 375.34 333.94 436.77 333.92 498.19 334.00 C 498.15 370.47 498.19 406.94 498.16 443.41 C 486.37 443.00 474.55 443.18 462.75 443.30 C 438.87 419.49 415.00 395.66 391.11 371.87 C 387.50 368.21 383.31 365.16 378.79 362.74 C 363.43 354.83 343.56 357.31 330.56 368.64 C 324.79 373.82 319.50 379.51 313.95 384.91 C 313.89 367.93 313.94 350.95 313.92 333.98 Z" />
</g>
<g id="#ffbd86ff">
<path fill="#ffbd86" opacity="1.00" d=" M 147.86 265.57 C 166.25 265.87 184.65 265.83 203.03 265.45 C 228.24 265.66 253.44 265.81 278.64 265.73 C 289.13 265.82 299.62 265.56 310.11 265.86 C 312.19 266.70 314.00 268.56 313.86 270.96 C 314.02 286.97 313.87 302.98 313.92 319.00 C 313.92 323.99 313.92 328.98 313.92 333.98 C 313.94 350.95 313.89 367.93 313.95 384.91 C 285.72 413.17 257.35 441.30 229.12 469.55 C 201.18 469.43 173.22 469.37 145.28 469.58 C 144.62 461.10 145.31 452.59 144.87 444.10 C 143.17 443.80 141.48 443.52 139.80 443.18 C 147.78 443.24 155.75 443.32 163.73 443.23 C 171.14 442.92 178.58 443.40 185.99 442.99 C 188.09 443.07 189.02 440.87 188.87 439.09 C 188.96 424.71 188.85 410.33 188.92 395.95 C 188.98 393.93 188.78 390.79 186.04 390.86 C 178.60 390.45 171.13 390.99 163.68 390.58 C 155.41 390.47 147.13 390.40 138.87 390.73 C 140.86 390.26 142.89 389.95 144.91 389.62 C 145.18 350.40 144.90 311.17 145.04 271.95 C 144.90 269.46 146.52 267.48 147.86 265.57 M 194.39 266.12 C 194.51 281.10 194.39 296.09 194.45 311.08 C 194.36 312.79 195.05 314.96 197.05 315.20 C 202.25 315.69 207.50 315.24 212.73 315.43 C 217.45 315.09 222.21 315.50 226.93 315.10 C 229.46 314.89 229.62 311.95 229.55 310.01 C 229.47 295.36 229.62 280.70 229.47 266.05 C 223.62 266.02 217.77 266.00 211.93 266.04 C 206.08 266.04 200.23 265.88 194.39 266.12 Z" />
</g>
<g id="#f6a96cff">
<path fill="#f6a96c" opacity="1.00" d=" M 111.39 267.36 C 113.27 265.23 116.42 265.62 118.99 265.47 C 128.61 265.58 138.24 265.41 147.86 265.57 C 146.52 267.48 144.90 269.46 145.04 271.95 C 144.90 311.17 145.18 350.40 144.91 389.62 C 142.89 389.95 140.86 390.26 138.87 390.73 C 136.37 391.11 136.21 393.99 136.22 395.97 C 136.28 410.35 136.17 424.72 136.27 439.09 C 136.10 441.24 137.54 443.23 139.80 443.18 C 141.48 443.52 143.17 443.80 144.87 444.10 C 145.31 452.59 144.62 461.10 145.28 469.58 C 133.48 469.83 121.67 469.79 109.87 469.61 C 110.18 461.05 109.96 452.48 110.02 443.92 C 110.03 400.61 110.04 357.30 110.02 313.99 C 110.01 309.01 110.01 304.02 110.02 299.04 C 110.04 290.35 110.04 281.66 109.99 272.97 C 110.06 271.05 109.93 268.85 111.39 267.36 Z" />
</g>
<g id="#fd4755ff">
<path fill="#fd4755" opacity="1.00" d=" M 194.39 266.12 C 200.23 265.88 206.08 266.04 211.93 266.04 C 211.66 279.35 212.00 292.67 211.78 305.98 C 211.68 309.16 212.10 312.32 212.73 315.43 C 207.50 315.24 202.25 315.69 197.05 315.20 C 195.05 314.96 194.36 312.79 194.45 311.08 C 194.39 296.09 194.51 281.10 194.39 266.12 Z" />
</g>
<g id="#fe646fff">
<path fill="#fe646f" opacity="1.00" d=" M 211.93 266.04 C 217.77 266.00 223.62 266.02 229.47 266.05 C 229.62 280.70 229.47 295.36 229.55 310.01 C 229.62 311.95 229.46 314.89 226.93 315.10 C 222.21 315.50 217.45 315.09 212.73 315.43 C 212.10 312.32 211.68 309.16 211.78 305.98 C 212.00 292.67 211.66 279.35 211.93 266.04 Z" />
</g>
<g id="#685e68ff">
<path fill="#685e68" opacity="1.00" d=" M 330.56 368.64 C 343.56 357.31 363.43 354.83 378.79 362.74 C 375.37 365.33 371.78 367.70 368.67 370.65 C 344.79 394.47 321.09 418.46 296.92 441.96 C 289.79 448.49 283.29 455.66 276.29 462.31 C 273.92 464.50 271.83 466.95 269.95 469.57 C 256.34 469.82 242.72 469.85 229.12 469.55 C 257.35 441.30 285.72 413.17 313.95 384.91 C 319.50 379.51 324.79 373.82 330.56 368.64 Z" />
</g>
<g id="#7a6d79ff">
<path fill="#7a6d79" opacity="1.00" d=" M 378.79 362.74 C 383.31 365.16 387.50 368.21 391.11 371.87 C 415.00 395.66 438.87 419.49 462.75 443.30 C 471.43 452.05 480.28 460.64 488.90 469.46 C 415.92 469.54 342.93 469.32 269.95 469.57 C 271.83 466.95 273.92 464.50 276.29 462.31 C 283.29 455.66 289.79 448.49 296.92 441.96 C 321.09 418.46 344.79 394.47 368.67 370.65 C 371.78 367.70 375.37 365.33 378.79 362.74 M 372.26 394.40 C 367.29 395.66 365.24 402.46 368.65 406.28 C 371.62 410.00 376.92 409.06 381.09 408.98 C 386.42 408.97 390.00 402.42 387.22 397.90 C 384.24 392.64 377.25 393.97 372.26 394.40 M 346.26 420.38 C 341.27 421.68 339.27 428.51 342.71 432.33 C 345.98 436.17 351.62 434.96 356.05 434.83 C 361.29 434.21 364.02 427.33 360.82 423.20 C 357.48 418.71 351.06 419.89 346.26 420.38 M 402.24 432.26 C 396.79 434.68 396.89 443.31 402.33 445.68 C 406.31 446.92 410.82 446.84 414.84 445.79 C 420.63 443.59 420.72 434.46 414.98 432.15 C 410.89 431.09 406.28 430.98 402.24 432.26 Z" />
</g>
<g id="#f3f0f3ff">
<path fill="#f3f0f3" opacity="1.00" d=" M 136.22 395.97 C 136.21 393.99 136.37 391.11 138.87 390.73 C 147.13 390.40 155.41 390.47 163.68 390.58 C 161.54 395.11 162.23 400.20 162.19 405.04 C 162.24 415.04 162.19 425.04 162.16 435.03 C 162.07 437.85 162.75 440.60 163.73 443.23 C 155.75 443.32 147.78 443.24 139.80 443.18 C 137.54 443.23 136.10 441.24 136.27 439.09 C 136.17 424.72 136.28 410.35 136.22 395.97 Z" />
</g>
<g id="#ffffffff">
<path fill="#ffffff" opacity="1.00" d=" M 163.68 390.58 C 171.13 390.99 178.60 390.45 186.04 390.86 C 188.78 390.79 188.98 393.93 188.92 395.95 C 188.85 410.33 188.96 424.71 188.87 439.09 C 189.02 440.87 188.09 443.07 185.99 442.99 C 178.58 443.40 171.14 442.92 163.73 443.23 C 162.75 440.60 162.07 437.85 162.16 435.03 C 162.19 425.04 162.24 415.04 162.19 405.04 C 162.23 400.20 161.54 395.11 163.68 390.58 Z" />
</g>
<g id="#a79ba7ff">
<path fill="#a79ba7" opacity="1.00" d=" M 372.26 394.40 C 377.25 393.97 384.24 392.64 387.22 397.90 C 390.00 402.42 386.42 408.97 381.09 408.98 C 376.92 409.06 371.62 410.00 368.65 406.28 C 365.24 402.46 367.29 395.66 372.26 394.40 Z" />
<path fill="#a79ba7" opacity="1.00" d=" M 346.26 420.38 C 351.06 419.89 357.48 418.71 360.82 423.20 C 364.02 427.33 361.29 434.21 356.05 434.83 C 351.62 434.96 345.98 436.17 342.71 432.33 C 339.27 428.51 341.27 421.68 346.26 420.38 Z" />
<path fill="#a79ba7" opacity="1.00" d=" M 402.24 432.26 C 406.28 430.98 410.89 431.09 414.98 432.15 C 420.72 434.46 420.63 443.59 414.84 445.79 C 410.82 446.84 406.31 446.92 402.33 445.68 C 396.89 443.31 396.79 434.68 402.24 432.26 Z" />
</g>
</svg>
