<?xml version="1.0" encoding="UTF-8" ?>
<!DOCTYPE svg PUBLIC "-//W3C//DTD SVG 1.1//EN" "http://www.w3.org/Graphics/SVG/1.1/DTD/svg11.dtd">
<svg width="512pt" height="512pt" viewBox="0 0 512 512" version="1.1" xmlns="http://www.w3.org/2000/svg">
<g id="#edfff3ff">
<path fill="#edfff3" opacity="1.00" d=" M 226.02 45.96 C 225.86 37.96 233.04 30.83 241.03 31.02 C 251.03 30.98 261.04 30.98 271.04 31.02 C 279.00 30.87 286.09 37.95 285.98 45.91 C 286.05 57.28 285.97 68.66 286.00 80.03 C 266.00 80.10 246.00 79.98 226.00 80.02 C 226.03 68.67 225.96 57.31 226.02 45.96 Z" />
</g>
<g id="#e6fff1ff">
<path fill="#e6fff1" opacity="1.00" d=" M 226.00 80.02 C 246.00 79.98 266.00 80.10 286.00 80.03 C 286.02 103.69 285.97 127.34 286.02 151.00 C 286.02 152.98 286.05 154.96 286.06 156.94 C 266.04 157.04 246.02 156.91 226.00 156.99 C 226.00 154.99 226.01 152.99 226.01 151.00 C 225.99 127.34 226.00 103.68 226.00 80.02 Z" />
</g>
<g id="#95fcabff">
<path fill="#95fcab" opacity="1.00" d=" M 0.00 165.18 C 0.36 157.48 7.27 150.85 15.01 151.02 C 85.35 150.98 155.68 151.01 226.01 151.00 C 226.01 152.99 226.00 154.99 226.00 156.99 C 225.96 165.30 226.04 173.61 225.98 181.92 C 150.66 182.08 75.33 181.89 0.00 181.98 L 0.00 165.18 Z" />
</g>
<g id="#92faabff">
<path fill="#92faab" opacity="1.00" d=" M 286.02 151.00 C 356.35 151.01 426.69 150.98 497.02 151.01 C 504.54 150.87 511.11 157.06 512.00 164.43 L 512.00 192.18 C 501.32 191.68 490.63 191.96 479.94 191.94 C 415.31 191.94 350.68 191.92 286.05 191.95 C 285.92 180.28 286.03 168.61 286.06 156.94 C 286.05 154.96 286.02 152.98 286.02 151.00 Z" />
</g>
<g id="#deffefff">
<path fill="#deffef" opacity="1.00" d=" M 226.00 156.99 C 246.02 156.91 266.04 157.04 286.06 156.94 C 286.03 168.61 285.92 180.28 286.05 191.95 C 286.10 195.95 286.08 200.24 283.80 203.72 C 281.03 208.50 275.47 211.22 270.01 210.98 C 259.10 210.86 248.18 211.26 237.28 210.71 C 232.05 208.85 227.37 204.69 226.36 199.02 C 225.60 193.36 226.09 187.62 225.98 181.92 C 226.04 173.61 225.96 165.30 226.00 156.99 Z" />
</g>
<g id="#86f5aaff">
<path fill="#86f5aa" opacity="1.00" d=" M 0.00 181.98 C 75.33 181.89 150.66 182.08 225.98 181.92 C 226.09 187.62 225.60 193.36 226.36 199.02 C 227.37 204.69 232.05 208.85 237.28 210.71 C 213.53 211.25 189.74 210.77 165.98 210.95 C 164.47 211.15 162.98 211.46 161.49 211.75 C 154.51 210.80 147.45 210.82 140.46 211.76 C 138.65 211.47 136.87 210.99 135.04 210.89 C 110.09 210.90 85.13 211.05 60.17 210.83 C 61.07 209.61 61.97 208.39 62.87 207.18 C 41.92 206.82 20.96 207.04 0.00 207.00 L 0.00 181.98 Z" />
</g>
<g id="#81f2a9ff">
<path fill="#81f2a9" opacity="1.00" d=" M 286.05 191.95 C 350.68 191.92 415.31 191.94 479.94 191.94 C 490.63 191.96 501.32 191.68 512.00 192.18 L 512.00 219.93 C 408.01 220.15 304.02 219.96 200.03 220.05 C 194.71 220.15 189.27 219.33 184.09 220.91 C 177.23 216.42 169.47 213.52 161.49 211.75 C 162.98 211.46 164.47 211.15 165.98 210.95 C 189.74 210.77 213.53 211.25 237.28 210.71 C 248.18 211.26 259.10 210.86 270.01 210.98 C 275.47 211.22 281.03 208.50 283.80 203.72 C 286.08 200.24 286.10 195.95 286.05 191.95 Z" />
</g>
<g id="#7df0a9ff">
<path fill="#7df0a9" opacity="1.00" d=" M 0.00 207.00 C 20.96 207.04 41.92 206.82 62.87 207.18 C 61.97 208.39 61.07 209.61 60.17 210.83 C 85.13 211.05 110.09 210.90 135.04 210.89 C 136.87 210.99 138.65 211.47 140.46 211.76 C 130.35 213.89 120.71 218.24 112.70 224.80 C 110.81 224.40 108.91 224.02 106.97 223.97 C 71.32 224.07 35.66 223.98 0.00 224.00 L 0.00 207.00 Z" />
</g>
<g id="#d5ffedff">
<path fill="#d5ffed" opacity="1.00" d=" M 140.46 211.76 C 147.45 210.82 154.51 210.80 161.49 211.75 C 169.47 213.52 177.23 216.42 184.09 220.91 C 196.92 229.44 206.18 243.00 209.56 258.02 C 212.16 269.16 211.16 281.00 207.26 291.73 C 204.33 299.73 199.54 306.95 193.68 313.10 L 193.40 313.40 C 189.61 313.09 185.82 312.95 182.02 313.03 C 157.55 313.30 133.06 312.64 108.59 313.36 C 105.90 310.61 103.41 307.65 101.28 304.44 C 96.13 296.81 92.77 287.98 91.50 278.86 C 89.84 266.13 92.36 252.93 98.63 241.73 C 102.30 235.33 107.07 229.57 112.70 224.80 C 120.71 218.24 130.35 213.89 140.46 211.76 Z" />
</g>
<g id="#75eda8ff">
<path fill="#75eda8" opacity="1.00" d=" M 184.09 220.91 C 189.27 219.33 194.71 220.15 200.03 220.05 C 304.02 219.96 408.01 220.15 512.00 219.93 L 512.00 246.88 C 486.31 247.01 460.63 246.91 434.94 246.94 C 429.82 246.99 424.62 246.44 419.59 247.66 C 416.42 243.43 411.34 240.68 405.98 240.99 C 375.98 241.03 345.98 240.95 315.99 241.04 C 307.11 240.78 299.95 249.45 301.00 258.11 C 270.52 257.74 240.04 257.87 209.56 258.02 C 206.18 243.00 196.92 229.44 184.09 220.91 Z" />
<path fill="#75eda8" opacity="1.00" d=" M 0.00 224.00 C 35.66 223.98 71.32 224.07 106.97 223.97 C 108.91 224.02 110.81 224.40 112.70 224.80 C 107.07 229.57 102.30 235.33 98.63 241.73 C 96.76 241.43 94.88 241.14 92.99 241.07 C 61.99 241.10 30.99 241.20 0.00 241.01 L 0.00 224.00 Z" />
</g>
<g id="#69e7a7ff">
<path fill="#69e7a7" opacity="1.00" d=" M 0.00 241.01 C 30.99 241.20 61.99 241.10 92.99 241.07 C 94.88 241.14 96.76 241.43 98.63 241.73 C 92.36 252.93 89.84 266.13 91.50 278.86 C 61.00 279.03 30.50 278.70 0.00 278.98 L 0.00 241.01 Z" />
</g>
<g id="#d6ffedff">
<path fill="#d6ffed" opacity="1.00" d=" M 301.00 258.11 C 299.95 249.45 307.11 240.78 315.99 241.04 C 345.98 240.95 375.98 241.03 405.98 240.99 C 411.34 240.68 416.42 243.43 419.59 247.66 C 423.68 254.01 422.24 262.74 416.59 267.66 C 413.50 269.86 409.80 271.16 405.98 271.02 C 375.98 271.00 345.98 271.09 315.98 270.98 C 308.62 271.12 302.23 265.22 301.00 258.11 Z" />
</g>
<g id="#6ae7a7ff">
<path fill="#6ae7a7" opacity="1.00" d=" M 419.59 247.66 C 424.62 246.44 429.82 246.99 434.94 246.94 C 460.63 246.91 486.31 247.01 512.00 246.88 L 512.00 268.10 C 484.66 267.77 457.31 268.22 429.97 267.98 C 425.50 268.05 421.03 268.04 416.59 267.66 C 422.24 262.74 423.68 254.01 419.59 247.66 Z" />
</g>
<g id="#5fe2a6ff">
<path fill="#5fe2a6" opacity="1.00" d=" M 209.56 258.02 C 240.04 257.87 270.52 257.74 301.00 258.11 C 302.23 265.22 308.62 271.12 315.98 270.98 C 345.98 271.09 375.98 271.00 405.98 271.02 C 409.80 271.16 413.50 269.86 416.59 267.66 C 421.03 268.04 425.50 268.05 429.97 267.98 C 457.31 268.22 484.66 267.77 512.00 268.10 L 512.00 291.87 C 414.01 292.16 316.02 291.87 218.04 291.97 C 214.44 292.04 210.84 291.93 207.26 291.73 C 211.16 281.00 212.16 269.16 209.56 258.02 Z" />
</g>
<g id="#5adfa5ff">
<path fill="#5adfa5" opacity="1.00" d=" M 0.00 278.98 C 30.50 278.70 61.00 279.03 91.50 278.86 C 92.77 287.98 96.13 296.81 101.28 304.44 C 96.88 303.96 92.44 303.96 88.02 304.06 C 58.68 304.05 29.34 304.16 0.00 304.02 L 0.00 278.98 Z" />
</g>
<g id="#55dda5ff">
<path fill="#55dda5" opacity="1.00" d=" M 193.68 313.10 C 199.54 306.95 204.33 299.73 207.26 291.73 C 210.84 291.93 214.44 292.04 218.04 291.97 C 316.02 291.87 414.01 292.16 512.00 291.87 L 512.00 326.09 C 490.87 325.43 469.72 326.30 448.59 325.63 C 451.07 322.00 452.73 317.50 451.67 313.07 C 450.40 306.26 443.96 300.90 437.00 301.03 C 386.67 300.98 336.32 300.98 285.98 301.02 C 278.86 300.86 272.71 306.41 271.14 313.19 C 245.32 313.29 219.50 313.38 193.68 313.10 Z" />
</g>
<g id="#cfffebff">
<path fill="#cfffeb" opacity="1.00" d=" M 271.14 313.19 C 272.71 306.41 278.86 300.86 285.98 301.02 C 336.32 300.98 386.67 300.98 437.00 301.03 C 443.96 300.90 450.40 306.26 451.67 313.07 C 452.73 317.50 451.07 322.00 448.59 325.63 C 445.42 329.16 440.80 331.21 436.05 331.03 C 386.02 331.01 335.98 331.10 285.95 330.98 C 276.87 331.21 269.38 322.06 271.14 313.19 Z" />
</g>
<g id="#4bd9a4ff">
<path fill="#4bd9a4" opacity="1.00" d=" M 0.00 304.02 C 29.34 304.16 58.68 304.05 88.02 304.06 C 92.44 303.96 96.88 303.96 101.28 304.44 C 103.41 307.65 105.90 310.61 108.59 313.36 C 118.48 323.33 132.01 329.73 146.06 330.63 C 142.36 330.92 138.66 331.00 134.95 331.03 C 123.75 331.09 112.66 333.93 102.60 338.81 C 97.51 337.38 92.21 338.03 87.01 337.96 C 58.00 337.84 29.00 338.02 0.00 337.98 L 0.00 304.02 Z" />
</g>
<g id="#c8ffe9ff">
<path fill="#c8ffe9" opacity="1.00" d=" M 108.59 313.36 C 133.06 312.64 157.55 313.30 182.02 313.03 C 185.82 312.95 189.61 313.09 193.40 313.40 C 183.50 323.37 169.93 329.89 155.83 330.57 C 162.87 331.20 169.99 330.64 176.99 331.78 C 198.54 334.80 218.19 347.95 229.67 366.38 C 237.10 378.14 241.03 392.09 240.95 406.00 C 241.03 409.54 239.48 412.83 237.54 415.69 C 234.35 419.18 229.75 421.21 225.01 421.02 C 176.01 421.06 127.02 420.98 78.02 421.05 C 72.91 421.38 67.82 419.46 64.39 415.62 C 59.97 410.09 60.95 402.76 61.59 396.22 C 63.13 385.64 66.67 375.32 72.40 366.27 C 79.76 354.63 90.26 344.97 102.60 338.81 C 112.66 333.93 123.75 331.09 134.95 331.03 C 138.66 331.00 142.36 330.92 146.06 330.63 C 132.01 329.73 118.48 323.33 108.59 313.36 Z" />
<path fill="#c8ffe9" opacity="1.00" d=" M 274.37 366.39 C 277.63 362.93 282.21 360.74 287.02 361.00 C 336.68 361.00 386.34 361.00 436.00 361.00 C 440.07 360.79 443.94 362.40 447.14 364.81 C 452.69 369.99 453.51 378.93 449.04 385.05 C 445.89 388.93 441.03 391.25 436.01 391.02 C 386.34 391.02 336.67 391.03 287.01 391.02 C 280.49 391.37 273.97 387.26 271.88 381.01 C 269.94 376.12 271.21 370.47 274.37 366.39 Z" />
</g>
<g id="#41d4a3ff">
<path fill="#41d4a3" opacity="1.00" d=" M 193.40 313.40 L 193.68 313.10 C 219.50 313.38 245.32 313.29 271.14 313.19 C 269.38 322.06 276.87 331.21 285.95 330.98 C 335.98 331.10 386.02 331.01 436.05 331.03 C 440.80 331.21 445.42 329.16 448.59 325.63 C 469.72 326.30 490.87 325.43 512.00 326.09 L 512.00 363.83 C 492.32 363.95 472.64 363.91 452.96 363.78 C 450.96 363.75 449.05 364.33 447.14 364.81 C 443.94 362.40 440.07 360.79 436.00 361.00 C 386.34 361.00 336.68 361.00 287.02 361.00 C 282.21 360.74 277.63 362.93 274.37 366.39 C 259.47 366.22 244.57 366.15 229.67 366.38 C 218.19 347.95 198.54 334.80 176.99 331.78 C 169.99 330.64 162.87 331.20 155.83 330.57 C 169.93 329.89 183.50 323.37 193.40 313.40 Z" />
</g>
<g id="#3ed2a2ff">
<path fill="#3ed2a2" opacity="1.00" d=" M 0.00 337.98 C 29.00 338.02 58.00 337.84 87.01 337.96 C 92.21 338.03 97.51 337.38 102.60 338.81 C 90.26 344.97 79.76 354.63 72.40 366.27 C 48.27 365.59 24.13 366.18 0.00 365.99 L 0.00 337.98 Z" />
</g>
<g id="#32cda1ff">
<path fill="#32cda1" opacity="1.00" d=" M 447.14 364.81 C 449.05 364.33 450.96 363.75 452.96 363.78 C 472.64 363.91 492.32 363.95 512.00 363.83 L 512.00 385.14 C 491.01 384.96 470.03 385.16 449.04 385.05 C 453.51 378.93 452.69 369.99 447.14 364.81 Z" />
</g>
<g id="#30cca1ff">
<path fill="#30cca1" opacity="1.00" d=" M 0.00 365.99 C 24.13 366.18 48.27 365.59 72.40 366.27 C 66.67 375.32 63.13 385.64 61.59 396.22 C 61.26 395.21 60.94 394.20 60.63 393.19 C 55.09 392.74 49.53 393.00 43.98 392.97 C 29.32 393.07 14.66 392.82 0.00 393.00 L 0.00 365.99 Z" />
</g>
<g id="#26c7a0ff">
<path fill="#26c7a0" opacity="1.00" d=" M 229.67 366.38 C 244.57 366.15 259.47 366.22 274.37 366.39 C 271.21 370.47 269.94 376.12 271.88 381.01 C 273.97 387.26 280.49 391.37 287.01 391.02 C 336.67 391.03 386.34 391.02 436.01 391.02 C 441.03 391.25 445.89 388.93 449.04 385.05 C 470.03 385.16 491.01 384.96 512.00 385.14 L 512.00 416.09 C 428.36 415.87 344.71 416.16 261.07 416.02 C 253.22 416.00 245.36 416.35 237.54 415.69 C 239.48 412.83 241.03 409.54 240.95 406.00 C 241.03 392.09 237.10 378.14 229.67 366.38 Z" />
</g>
<g id="#24c6a0ff">
<path fill="#24c6a0" opacity="1.00" d=" M 0.00 393.00 C 14.66 392.82 29.32 393.07 43.98 392.97 C 49.53 393.00 55.09 392.74 60.63 393.19 C 60.94 394.20 61.26 395.21 61.59 396.22 C 60.95 402.76 59.97 410.09 64.39 415.62 C 57.28 416.44 50.12 416.02 42.98 416.06 C 28.66 415.98 14.33 416.20 0.00 416.02 L 0.00 393.00 Z" />
</g>
<g id="#16c09eff">
<path fill="#16c09e" opacity="1.00" d=" M 0.00 416.02 C 14.33 416.20 28.66 415.98 42.98 416.06 C 50.12 416.02 57.28 416.44 64.39 415.62 C 67.82 419.46 72.91 421.38 78.02 421.05 C 127.02 420.98 176.01 421.06 225.01 421.02 C 229.75 421.21 234.35 419.18 237.54 415.69 C 245.36 416.35 253.22 416.00 261.07 416.02 C 344.71 416.16 428.36 415.87 512.00 416.09 L 512.00 449.94 C 344.99 450.08 177.96 449.95 10.95 450.04 C 9.03 450.31 7.66 448.92 6.04 448.21 C 4.04 447.88 2.01 447.95 0.00 447.91 L 0.00 416.02 Z" />
</g>
<g id="#07b89dff">
<path fill="#07b89d" opacity="1.00" d=" M 0.00 447.91 C 2.01 447.95 4.04 447.88 6.04 448.21 C 7.66 448.92 9.03 450.31 10.95 450.04 C 177.96 449.95 344.99 450.08 512.00 449.94 L 512.00 467.55 C 511.10 474.89 504.59 481.07 497.09 480.96 C 338.40 481.04 179.71 480.96 21.02 481.01 C 16.37 481.00 11.28 481.46 7.21 478.75 C 3.20 476.44 0.79 472.13 0.00 467.67 L 0.00 447.91 Z" />
</g>
</svg>
