<?xml version="1.0" encoding="UTF-8" ?>
<!DOCTYPE svg PUBLIC "-//W3C//DTD SVG 1.1//EN" "http://www.w3.org/Graphics/SVG/1.1/DTD/svg11.dtd">
<svg width="512pt" height="512pt" viewBox="0 0 512 512" version="1.1" xmlns="http://www.w3.org/2000/svg">
<g id="#4f575b90">
<path fill="#4f575b" opacity="0.56" d=" M 48.24 57.03 C 48.10 55.28 51.23 54.83 51.77 56.41 C 50.67 56.94 49.46 57.19 48.24 57.03 Z" />
<path fill="#4f575b" opacity="0.56" d=" M 460.23 56.41 C 460.76 54.83 463.89 55.28 463.75 57.03 C 462.53 57.20 461.32 56.94 460.23 56.41 Z" />
<path fill="#4f575b" opacity="0.56" d=" M 16.38 92.69 C 14.84 91.88 15.08 88.29 17.03 88.32 C 17.14 89.81 16.85 91.28 16.38 92.69 Z" />
<path fill="#4f575b" opacity="0.56" d=" M 494.97 88.25 C 496.71 88.10 497.16 91.23 495.59 91.77 C 495.05 90.67 494.79 89.46 494.97 88.25 Z" />
</g>
<g id="#1a1a1aff">
<path fill="#1a1a1a" opacity="1.00" d=" M 51.77 56.41 C 52.50 56.31 53.96 56.10 54.69 56.00 C 188.89 56.00 323.10 56.00 457.31 56.00 C 458.04 56.10 459.50 56.31 460.23 56.41 C 461.32 56.94 462.53 57.20 463.75 57.03 C 473.32 57.79 481.79 64.02 487.71 71.30 C 491.33 76.25 494.73 81.98 494.97 88.25 C 494.79 89.46 495.05 90.67 495.59 91.77 C 496.17 93.42 495.95 95.21 496.04 96.93 C 495.94 120.62 496.05 144.31 495.99 168.00 C 336.00 168.00 176.00 168.00 16.01 168.00 C 15.96 144.64 16.06 121.28 15.96 97.92 C 16.01 96.17 15.92 94.39 16.38 92.69 C 16.85 91.28 17.14 89.81 17.03 88.32 C 17.81 78.48 24.29 69.81 31.87 63.85 C 36.70 60.46 42.21 57.23 48.24 57.03 C 49.46 57.19 50.67 56.94 51.77 56.41 M 84.35 96.42 C 77.29 97.94 71.86 104.76 72.01 112.00 C 71.77 120.53 79.50 128.17 88.00 127.99 C 96.87 128.23 104.75 119.89 103.96 111.04 C 103.66 101.52 93.61 93.92 84.35 96.42 M 157.34 96.23 C 150.16 97.30 144.30 103.83 144.03 111.10 C 143.27 119.94 151.17 128.19 160.00 127.99 C 168.85 128.22 176.71 119.93 175.96 111.10 C 175.68 101.94 166.38 94.40 157.34 96.23 M 228.35 96.42 C 221.29 97.94 215.86 104.76 216.01 112.00 C 215.77 120.53 223.50 128.17 232.00 127.99 C 240.87 128.23 248.74 119.90 247.96 111.04 C 247.66 101.52 237.61 93.92 228.35 96.42 Z" />
</g>
<g id="#ff0000ff">
<path fill="#ff0000" opacity="1.00" d=" M 84.35 96.42 C 93.61 93.92 103.66 101.52 103.96 111.04 C 104.75 119.89 96.87 128.23 88.00 127.99 C 79.50 128.17 71.77 120.53 72.01 112.00 C 71.86 104.76 77.29 97.94 84.35 96.42 Z" />
</g>
<g id="#ffff00ff">
<path fill="#ffff00" opacity="1.00" d=" M 157.34 96.23 C 166.38 94.40 175.68 101.94 175.96 111.10 C 176.71 119.93 168.85 128.22 160.00 127.99 C 151.17 128.19 143.27 119.94 144.03 111.10 C 144.30 103.83 150.16 97.30 157.34 96.23 Z" />
</g>
<g id="#00ff00ff">
<path fill="#00ff00" opacity="1.00" d=" M 228.35 96.42 C 237.61 93.92 247.66 101.52 247.96 111.04 C 248.74 119.90 240.87 128.23 232.00 127.99 C 223.50 128.17 215.77 120.53 216.01 112.00 C 215.86 104.76 221.29 97.94 228.35 96.42 Z" />
</g>
<g id="#d6ecf9ff">
<path fill="#d6ecf9" opacity="1.00" d=" M 16.01 168.00 C 176.00 168.00 336.00 168.00 495.99 168.00 C 496.02 250.35 495.99 332.70 496.00 415.06 C 496.24 426.57 491.37 438.10 482.74 445.76 C 475.26 452.57 465.13 456.18 455.05 456.00 C 322.34 456.00 189.64 456.00 56.94 456.00 C 47.57 456.15 38.16 453.06 30.88 447.12 C 21.56 439.72 15.97 427.97 16.02 416.08 C 15.98 333.38 15.99 250.69 16.01 168.00 M 210.53 199.47 C 200.84 205.17 191.10 210.77 181.32 216.32 C 178.63 217.89 175.48 219.73 174.92 223.10 C 174.18 226.94 176.77 230.27 178.50 233.46 C 182.35 240.24 186.70 246.76 190.05 253.81 C 186.60 258.47 182.88 262.96 180.06 268.05 C 177.07 273.05 175.03 278.52 172.75 283.87 C 162.85 284.37 152.92 283.59 143.02 284.17 C 139.07 284.40 136.00 288.05 136.08 291.94 C 135.81 302.62 136.13 313.31 135.97 323.99 C 136.04 327.53 135.67 331.15 136.51 334.63 C 137.42 337.84 140.67 339.91 143.94 339.92 C 153.49 340.32 163.06 339.62 172.61 340.19 C 174.88 345.81 177.09 351.50 180.26 356.70 C 183.00 361.51 186.57 365.77 189.86 370.21 C 185.82 378.49 180.70 386.19 176.38 394.32 C 175.19 396.51 174.45 399.16 175.38 401.60 C 176.22 404.23 178.71 405.74 180.94 407.09 C 190.91 412.77 200.88 418.46 210.76 424.30 C 213.33 425.75 216.31 427.39 219.35 426.43 C 222.58 425.61 224.29 422.50 225.86 419.85 C 229.94 412.73 233.94 405.55 238.14 398.50 C 243.43 398.81 248.66 399.88 253.98 399.92 C 260.37 400.16 266.70 399.13 273.03 398.38 C 278.46 406.31 282.83 414.91 288.06 422.96 C 289.67 425.59 292.73 427.44 295.87 426.88 C 299.10 426.22 301.84 424.26 304.68 422.68 C 314.12 417.07 323.80 411.84 333.19 406.14 C 336.80 404.14 338.34 399.33 336.29 395.68 C 331.88 386.98 326.16 379.00 321.95 370.19 C 324.65 366.47 327.61 362.93 330.07 359.04 C 333.95 353.16 336.53 346.59 339.24 340.13 C 349.15 339.62 359.08 340.41 368.98 339.82 C 372.92 339.58 375.98 335.94 375.92 332.06 C 376.18 320.38 375.86 308.68 376.05 296.99 C 375.92 293.59 376.46 289.67 374.12 286.85 C 372.46 284.71 369.67 284.03 367.09 284.02 C 357.86 283.77 348.61 284.34 339.39 283.82 C 335.52 272.83 329.57 262.74 322.15 253.79 C 326.17 245.50 331.30 237.81 335.62 229.68 C 336.79 227.48 337.53 224.83 336.62 222.40 C 335.67 219.54 332.88 217.99 330.47 216.51 C 321.56 211.45 312.66 206.36 303.82 201.18 C 300.97 199.61 298.20 197.59 294.92 197.07 C 291.45 196.59 288.45 199.01 286.87 201.90 C 282.05 209.72 278.03 218.03 272.88 225.65 C 261.42 223.59 249.73 223.68 238.27 225.63 C 233.44 218.03 229.34 210.00 224.73 202.27 C 223.38 200.00 221.52 197.69 218.77 197.20 C 215.81 196.50 213.02 198.09 210.53 199.47 Z" />
<path fill="#d6ecf9" opacity="1.00" d=" M 250.36 280.50 C 259.55 278.84 269.41 281.44 276.54 287.49 C 284.50 294.06 288.85 304.65 287.84 314.92 C 286.74 330.90 272.04 344.36 256.00 343.98 C 240.00 344.35 225.29 330.97 224.15 315.01 C 222.25 298.97 234.42 282.99 250.36 280.50 Z" />
</g>
<g id="#2ba1fcff">
<path fill="#2ba1fc" opacity="1.00" d=" M 210.53 199.47 C 213.02 198.09 215.81 196.50 218.77 197.20 C 221.52 197.69 223.38 200.00 224.73 202.27 C 229.34 210.00 233.44 218.03 238.27 225.63 C 249.73 223.68 261.42 223.59 272.88 225.65 C 278.03 218.03 282.05 209.72 286.87 201.90 C 288.45 199.01 291.45 196.59 294.92 197.07 C 298.20 197.59 300.97 199.61 303.82 201.18 C 312.66 206.36 321.56 211.45 330.47 216.51 C 332.88 217.99 335.67 219.54 336.62 222.40 C 337.53 224.83 336.79 227.48 335.62 229.68 C 331.30 237.81 326.17 245.50 322.15 253.79 C 329.57 262.74 335.52 272.83 339.39 283.82 C 348.61 284.34 357.86 283.77 367.09 284.02 C 369.67 284.03 372.46 284.71 374.12 286.85 C 376.46 289.67 375.92 293.59 376.05 296.99 C 375.86 308.68 376.18 320.38 375.92 332.06 C 375.98 335.94 372.92 339.58 368.98 339.82 C 359.08 340.41 349.15 339.62 339.24 340.13 C 336.53 346.59 333.95 353.16 330.07 359.04 C 327.61 362.93 324.65 366.47 321.95 370.19 C 326.16 379.00 331.88 386.98 336.29 395.68 C 338.34 399.33 336.80 404.14 333.19 406.14 C 323.80 411.84 314.12 417.07 304.68 422.68 C 301.84 424.26 299.10 426.22 295.87 426.88 C 292.73 427.44 289.67 425.59 288.06 422.96 C 282.83 414.91 278.46 406.31 273.03 398.38 C 266.70 399.13 260.37 400.16 253.98 399.92 C 248.66 399.88 243.43 398.81 238.14 398.50 C 233.94 405.55 229.94 412.73 225.86 419.85 C 224.29 422.50 222.58 425.61 219.35 426.43 C 216.31 427.39 213.33 425.75 210.76 424.30 C 200.88 418.46 190.91 412.77 180.94 407.09 C 178.71 405.74 176.22 404.23 175.38 401.60 C 174.45 399.16 175.19 396.51 176.38 394.32 C 180.70 386.19 185.82 378.49 189.86 370.21 C 186.57 365.77 183.00 361.51 180.26 356.70 C 177.09 351.50 174.88 345.81 172.61 340.19 C 163.06 339.62 153.49 340.32 143.94 339.92 C 140.67 339.91 137.42 337.84 136.51 334.63 C 135.67 331.15 136.04 327.53 135.97 323.99 C 136.13 313.31 135.81 302.62 136.08 291.94 C 136.00 288.05 139.07 284.40 143.02 284.17 C 152.92 283.59 162.85 284.37 172.75 283.87 C 175.03 278.52 177.07 273.05 180.06 268.05 C 182.88 262.96 186.60 258.47 190.05 253.81 C 186.70 246.76 182.35 240.24 178.50 233.46 C 176.77 230.27 174.18 226.94 174.92 223.10 C 175.48 219.73 178.63 217.89 181.32 216.32 C 191.10 210.77 200.84 205.17 210.53 199.47 M 250.36 280.50 C 234.42 282.99 222.25 298.97 224.15 315.01 C 225.29 330.97 240.00 344.35 256.00 343.98 C 272.04 344.36 286.74 330.90 287.84 314.92 C 288.85 304.65 284.50 294.06 276.54 287.49 C 269.41 281.44 259.55 278.84 250.36 280.50 Z" />
</g>
</svg>
