<?xml version="1.0" standalone="no"?>
<!DOCTYPE svg PUBLIC "-//W3C//DTD SVG 20010904//EN"
 "http://www.w3.org/TR/2001/REC-SVG-20010904/DTD/svg10.dtd">
<svg version="1.0" xmlns="http://www.w3.org/2000/svg"
 width="512.000000pt" height="512.000000pt" viewBox="0 0 512.000000 512.000000"
 preserveAspectRatio="xMidYMid meet">

<g transform="translate(0.000000,512.000000) scale(0.100000,-0.100000)"
fill="#000000" stroke="none">
<path d="M2455 5019 c-575 -42 -1077 -422 -1259 -950 -210 -613 -14 -1269 610
-2047 175 -220 578 -660 650 -711 41 -29 117 -38 170 -21 44 15 114 84 362
354 659 721 959 1261 1012 1821 42 442 -143 908 -476 1197 -229 199 -548 334
-832 354 -42 2 -90 6 -107 7 -16 2 -75 0 -130 -4z m172 -235 c297 -99 581
-342 722 -618 102 -200 144 -379 145 -611 0 -225 -34 -387 -129 -626 -130
-323 -319 -592 -731 -1039 -206 -224 -209 -227 -230 -209 -38 31 -314 343
-423 479 -198 247 -330 447 -440 668 -141 282 -201 509 -201 758 0 465 248
872 658 1078 211 106 504 162 629 120z"/>
<path d="M2410 4335 c-202 -41 -394 -170 -505 -340 -84 -129 -133 -319 -120
-468 44 -505 546 -835 1025 -672 411 140 627 584 480 987 -35 96 -120 227
-189 291 -185 173 -450 251 -691 202z"/>
<path d="M613 1970 c-18 -10 -39 -29 -47 -42 -24 -37 -566 -1648 -566 -1682 0
-44 39 -106 80 -130 l35 -21 2445 0 2445 0 35 21 c42 24 80 87 80 132 0 36
-638 1637 -672 1685 -41 57 -40 57 -490 57 -376 0 -415 -2 -434 -18 -45 -36
-58 -107 -28 -151 34 -48 58 -51 436 -51 l353 0 63 -158 c34 -86 62 -162 62
-168 0 -9 -2319 -799 -2325 -792 -2 2 -184 253 -405 558 l-402 555 144 5 c88
3 152 10 165 18 67 38 72 134 9 184 -19 16 -60 18 -486 18 -443 0 -466 -1
-497 -20z m818 -795 c236 -324 429 -592 429 -595 0 -3 -170 -62 -378 -133
l-377 -127 -429 0 c-404 0 -428 1 -421 18 3 9 107 314 230 677 123 363 231
682 241 708 l16 48 130 -3 131 -3 428 -590z m3258 -418 c94 -235 171 -429 171
-432 0 -3 -150 -5 -334 -5 l-334 0 -232 321 c-128 176 -230 322 -227 325 3 3
175 63 384 134 374 127 378 128 390 106 6 -11 88 -214 182 -449z m-979 -150
c111 -154 200 -281 197 -283 -2 -2 -473 -3 -1047 -2 l-1042 3 828 282 c456
154 836 280 846 280 9 -1 105 -124 218 -280z"/>
</g>
</svg>
