<?xml version="1.0" encoding="UTF-8" ?>
<!DOCTYPE svg PUBLIC "-//W3C//DTD SVG 1.1//EN" "http://www.w3.org/Graphics/SVG/1.1/DTD/svg11.dtd">
<svg width="512pt" height="512pt" viewBox="0 0 512 512" version="1.1" xmlns="http://www.w3.org/2000/svg">
<g id="#7dc7ffff">
<path fill="#7dc7ff" opacity="1.00" d=" M 149.21 16.01 C 219.11 15.99 289.01 16.00 358.91 16.00 C 358.83 62.84 359.06 109.68 358.80 156.51 C 358.62 159.33 358.47 162.16 358.49 164.99 C 358.62 230.01 358.37 295.04 358.62 360.06 C 354.02 356.17 348.07 353.63 341.98 354.00 C 330.51 354.64 320.32 364.47 319.27 375.91 C 318.60 383.64 322.39 391.23 328.28 396.11 C 318.74 400.33 310.63 407.87 306.51 417.54 C 303.53 423.92 302.91 431.07 303.08 438.02 C 303.11 457.35 303.08 476.67 303.09 496.00 L 302.44 496.00 C 302.41 475.01 302.51 454.02 302.39 433.04 C 302.33 413.71 289.38 395.37 271.35 388.56 C 279.41 383.34 284.95 374.46 286.22 364.96 C 287.97 347.42 272.48 330.61 254.98 330.34 C 240.15 330.05 226.47 341.61 223.24 355.90 C 220.27 368.39 227.08 381.70 237.52 388.55 C 223.40 393.99 212.24 406.35 208.23 420.92 C 206.72 426.13 206.41 431.59 206.42 436.98 C 206.46 456.65 206.41 476.33 206.45 496.00 C 206.25 496.00 205.85 496.00 205.64 496.00 C 205.65 475.00 205.71 453.99 205.62 432.99 C 205.56 417.12 195.09 402.11 180.42 396.20 C 185.22 392.05 188.85 386.35 189.42 379.93 C 190.98 366.06 177.81 352.88 163.99 354.04 C 158.64 354.42 153.71 356.99 149.68 360.42 C 149.43 356.60 149.38 352.78 149.43 348.96 C 149.47 292.31 149.43 235.65 149.46 179.00 C 149.40 171.01 149.63 163.02 149.23 155.03 C 149.19 108.69 149.23 62.35 149.21 16.01 M 189.61 38.08 C 189.46 64.39 189.53 90.70 189.57 117.01 C 232.58 116.96 275.60 117.19 318.61 116.90 C 318.53 90.65 318.56 64.41 318.59 38.16 C 275.60 37.98 232.60 38.15 189.61 38.08 M 278.30 156.49 C 278.20 161.72 278.26 166.95 278.23 172.18 C 283.59 172.43 288.96 172.28 294.32 172.29 C 294.43 167.05 294.37 161.82 294.38 156.58 C 289.02 156.41 283.65 156.52 278.30 156.49 M 213.74 156.55 C 213.71 161.79 213.69 167.03 213.76 172.27 C 219.13 172.32 224.50 172.35 229.87 172.25 C 229.89 167.05 229.84 161.84 229.92 156.64 C 224.53 156.34 219.13 156.50 213.74 156.55 M 246.00 156.54 C 246.00 161.78 245.98 167.03 246.02 172.27 C 251.38 172.33 256.74 172.33 262.10 172.27 C 262.15 167.02 262.15 161.77 262.10 156.53 C 256.73 156.47 251.36 156.46 246.00 156.54 M 181.43 188.18 C 181.48 193.39 181.48 198.59 181.44 203.80 C 186.83 203.93 192.23 203.92 197.62 203.81 C 197.58 198.59 197.59 193.37 197.62 188.16 C 192.22 188.05 186.82 188.02 181.43 188.18 M 213.76 188.10 C 213.69 193.36 213.66 198.62 213.79 203.88 C 219.15 203.88 224.51 203.90 229.87 203.85 C 229.88 198.61 229.89 193.36 229.87 188.11 C 224.50 188.06 219.13 188.08 213.76 188.10 M 246.03 188.09 C 245.98 193.35 245.97 198.61 246.03 203.88 C 251.38 203.88 256.74 203.89 262.09 203.86 C 262.15 198.61 262.16 193.36 262.08 188.11 C 256.73 188.07 251.38 188.08 246.03 188.09 M 278.25 188.13 C 278.24 193.36 278.25 198.60 278.24 203.83 C 283.60 203.92 288.96 203.87 294.32 203.88 C 294.42 198.62 294.40 193.35 294.33 188.09 C 288.97 188.09 283.61 188.05 278.25 188.13 M 310.53 188.09 C 310.49 193.36 310.40 198.63 310.59 203.90 C 315.94 203.85 321.30 203.94 326.65 203.81 C 326.62 198.59 326.62 193.37 326.64 188.15 C 321.27 188.03 315.90 188.10 310.53 188.09 M 181.48 235.46 C 186.84 235.49 192.20 235.47 197.56 235.48 C 197.51 230.19 197.89 224.89 197.35 219.63 C 192.12 219.74 186.88 219.68 181.64 219.68 C 181.25 224.93 181.52 230.20 181.48 235.46 M 213.75 219.75 C 213.70 224.97 213.70 230.20 213.75 235.43 C 219.13 235.49 224.51 235.54 229.89 235.40 C 229.87 230.19 229.88 224.98 229.88 219.77 C 224.50 219.63 219.12 219.67 213.75 219.75 M 246.02 219.72 C 245.98 224.96 246.00 230.20 246.00 235.43 C 251.37 235.50 256.73 235.50 262.10 235.44 C 262.14 230.20 262.15 224.96 262.10 219.73 C 256.74 219.67 251.38 219.67 246.02 219.72 M 278.22 219.85 C 278.28 225.07 278.18 230.28 278.32 235.50 C 283.68 235.39 289.05 235.67 294.40 235.30 C 294.36 230.11 294.42 224.92 294.35 219.73 C 288.97 219.73 283.59 219.53 278.22 219.85 M 310.52 235.47 C 315.87 235.48 321.23 235.48 326.59 235.48 C 326.55 230.19 326.88 224.90 326.41 219.63 C 321.17 219.73 315.93 219.70 310.69 219.66 C 310.26 224.92 310.56 230.20 310.52 235.47 M 181.47 251.29 C 181.45 256.49 181.49 261.69 181.42 266.90 C 186.82 267.11 192.23 267.10 197.64 266.90 C 197.57 261.70 197.60 256.49 197.60 251.29 C 192.22 251.22 186.84 251.22 181.47 251.29 M 213.80 251.25 C 213.64 256.49 213.71 261.74 213.74 266.99 C 219.12 267.05 224.49 267.05 229.86 266.99 C 229.88 261.74 229.91 256.49 229.83 251.24 C 224.49 251.25 219.15 251.24 213.80 251.25 M 246.06 251.23 C 245.95 256.49 245.98 261.74 246.02 267.00 C 251.38 267.04 256.74 267.06 262.10 266.99 C 262.13 261.74 262.22 256.49 262.01 251.24 C 256.69 251.24 251.37 251.26 246.06 251.23 M 278.27 251.26 C 278.22 256.49 278.26 261.72 278.23 266.95 C 283.60 267.09 288.97 267.03 294.34 267.01 C 294.36 261.75 294.50 256.48 294.25 251.23 C 288.92 251.26 283.59 251.23 278.27 251.26 M 310.48 251.31 C 310.49 256.50 310.51 261.70 310.45 266.89 C 315.85 267.12 321.25 267.07 326.65 266.93 C 326.61 261.72 326.64 256.50 326.62 251.28 C 321.24 251.23 315.86 251.20 310.48 251.31 M 181.41 283.04 C 181.49 288.23 181.43 293.41 181.47 298.60 C 186.84 298.65 192.21 298.64 197.58 298.61 C 197.62 293.42 197.57 288.23 197.64 283.04 C 192.23 282.72 186.81 282.69 181.41 283.04 M 213.75 282.87 C 213.67 288.05 213.77 293.22 213.67 298.40 C 219.03 298.92 224.43 298.49 229.81 298.65 C 229.93 293.39 229.88 288.14 229.86 282.88 C 224.49 282.80 219.12 282.82 213.75 282.87 M 246.02 282.87 C 246.00 288.13 245.92 293.40 246.10 298.67 C 251.39 298.60 256.68 298.62 261.97 298.65 C 262.26 293.39 262.12 288.13 262.09 282.87 C 256.73 282.81 251.38 282.82 246.02 282.87 M 278.25 282.95 C 278.25 288.17 278.22 293.40 278.27 298.62 C 283.66 298.54 289.06 298.86 294.43 298.42 C 294.33 293.24 294.43 288.05 294.34 282.86 C 288.97 282.84 283.61 282.74 278.25 282.95 M 310.45 283.06 C 310.52 288.24 310.47 293.42 310.51 298.60 C 315.87 298.65 321.24 298.64 326.61 298.61 C 326.65 293.40 326.62 288.19 326.64 282.98 C 321.25 282.77 315.84 282.67 310.45 283.06 Z" />
</g>
<g id="#359ed8ff">
<path fill="#359ed8" opacity="1.00" d=" M 189.61 38.08 C 232.60 38.15 275.60 37.98 318.59 38.16 C 318.56 64.41 318.53 90.65 318.61 116.90 C 275.60 117.19 232.58 116.96 189.57 117.01 C 189.53 90.70 189.46 64.39 189.61 38.08 Z" />
<path fill="#359ed8" opacity="1.00" d=" M 278.30 156.49 C 283.65 156.52 289.02 156.41 294.38 156.58 C 294.37 161.82 294.43 167.05 294.32 172.29 C 288.96 172.28 283.59 172.43 278.23 172.18 C 278.26 166.95 278.20 161.72 278.30 156.49 Z" />
<path fill="#359ed8" opacity="1.00" d=" M 213.74 156.55 C 219.13 156.50 224.53 156.34 229.92 156.64 C 229.84 161.84 229.89 167.05 229.87 172.25 C 224.50 172.35 219.13 172.32 213.76 172.27 C 213.69 167.03 213.71 161.79 213.74 156.55 Z" />
<path fill="#359ed8" opacity="1.00" d=" M 246.00 156.54 C 251.36 156.46 256.73 156.47 262.10 156.53 C 262.15 161.77 262.15 167.02 262.10 172.27 C 256.74 172.33 251.38 172.33 246.02 172.27 C 245.98 167.03 246.00 161.78 246.00 156.54 Z" />
<path fill="#359ed8" opacity="1.00" d=" M 181.43 188.18 C 186.82 188.02 192.22 188.05 197.62 188.16 C 197.59 193.37 197.58 198.59 197.62 203.81 C 192.23 203.92 186.83 203.93 181.44 203.80 C 181.48 198.59 181.48 193.39 181.43 188.18 Z" />
<path fill="#359ed8" opacity="1.00" d=" M 213.76 188.10 C 219.13 188.08 224.50 188.06 229.87 188.11 C 229.89 193.36 229.88 198.61 229.87 203.85 C 224.51 203.90 219.15 203.88 213.79 203.88 C 213.66 198.62 213.69 193.36 213.76 188.10 Z" />
<path fill="#359ed8" opacity="1.00" d=" M 246.03 188.09 C 251.38 188.08 256.73 188.07 262.08 188.11 C 262.16 193.36 262.15 198.61 262.09 203.86 C 256.74 203.89 251.38 203.88 246.03 203.88 C 245.97 198.61 245.98 193.35 246.03 188.09 Z" />
<path fill="#359ed8" opacity="1.00" d=" M 278.25 188.13 C 283.61 188.05 288.97 188.09 294.33 188.09 C 294.40 193.35 294.42 198.62 294.32 203.88 C 288.96 203.87 283.60 203.92 278.24 203.83 C 278.25 198.60 278.24 193.36 278.25 188.13 Z" />
<path fill="#359ed8" opacity="1.00" d=" M 310.53 188.09 C 315.90 188.10 321.27 188.03 326.64 188.15 C 326.62 193.37 326.62 198.59 326.65 203.81 C 321.30 203.94 315.94 203.85 310.59 203.90 C 310.40 198.63 310.49 193.36 310.53 188.09 Z" />
<path fill="#359ed8" opacity="1.00" d=" M 181.48 235.46 C 181.52 230.20 181.25 224.93 181.64 219.68 C 186.88 219.68 192.12 219.74 197.35 219.63 C 197.89 224.89 197.51 230.19 197.56 235.48 C 192.20 235.47 186.84 235.49 181.48 235.46 Z" />
<path fill="#359ed8" opacity="1.00" d=" M 213.75 219.75 C 219.12 219.67 224.50 219.63 229.88 219.77 C 229.88 224.98 229.87 230.19 229.89 235.40 C 224.51 235.54 219.13 235.49 213.75 235.43 C 213.70 230.20 213.70 224.97 213.75 219.75 Z" />
<path fill="#359ed8" opacity="1.00" d=" M 246.02 219.72 C 251.38 219.67 256.74 219.67 262.10 219.73 C 262.15 224.96 262.14 230.20 262.10 235.44 C 256.73 235.50 251.37 235.50 246.00 235.43 C 246.00 230.20 245.98 224.96 246.02 219.72 Z" />
<path fill="#359ed8" opacity="1.00" d=" M 278.22 219.85 C 283.59 219.53 288.97 219.73 294.35 219.73 C 294.42 224.92 294.36 230.11 294.40 235.30 C 289.05 235.67 283.68 235.39 278.32 235.50 C 278.18 230.28 278.28 225.07 278.22 219.85 Z" />
<path fill="#359ed8" opacity="1.00" d=" M 310.52 235.47 C 310.56 230.20 310.26 224.92 310.69 219.66 C 315.93 219.70 321.17 219.73 326.41 219.63 C 326.88 224.90 326.55 230.19 326.59 235.48 C 321.23 235.48 315.87 235.48 310.52 235.47 Z" />
<path fill="#359ed8" opacity="1.00" d=" M 181.47 251.29 C 186.84 251.22 192.22 251.22 197.60 251.29 C 197.60 256.49 197.57 261.70 197.64 266.90 C 192.23 267.10 186.82 267.11 181.42 266.90 C 181.49 261.69 181.45 256.49 181.47 251.29 Z" />
<path fill="#359ed8" opacity="1.00" d=" M 213.80 251.25 C 219.15 251.24 224.49 251.25 229.83 251.24 C 229.91 256.49 229.88 261.74 229.86 266.99 C 224.49 267.05 219.12 267.05 213.74 266.99 C 213.71 261.74 213.64 256.49 213.80 251.25 Z" />
<path fill="#359ed8" opacity="1.00" d=" M 246.06 251.23 C 251.37 251.26 256.69 251.24 262.01 251.24 C 262.22 256.49 262.13 261.74 262.10 266.99 C 256.74 267.06 251.38 267.04 246.02 267.00 C 245.98 261.74 245.95 256.49 246.06 251.23 Z" />
<path fill="#359ed8" opacity="1.00" d=" M 278.27 251.26 C 283.59 251.23 288.92 251.26 294.25 251.23 C 294.50 256.48 294.36 261.75 294.34 267.01 C 288.97 267.03 283.60 267.09 278.23 266.95 C 278.26 261.72 278.22 256.49 278.27 251.26 Z" />
<path fill="#359ed8" opacity="1.00" d=" M 310.48 251.31 C 315.86 251.20 321.24 251.23 326.62 251.28 C 326.64 256.50 326.61 261.72 326.65 266.93 C 321.25 267.07 315.85 267.12 310.45 266.89 C 310.51 261.70 310.49 256.50 310.48 251.31 Z" />
<path fill="#359ed8" opacity="1.00" d=" M 181.41 283.04 C 186.81 282.69 192.23 282.72 197.64 283.04 C 197.57 288.23 197.62 293.42 197.58 298.61 C 192.21 298.64 186.84 298.65 181.47 298.60 C 181.43 293.41 181.49 288.23 181.41 283.04 Z" />
<path fill="#359ed8" opacity="1.00" d=" M 213.75 282.87 C 219.12 282.82 224.49 282.80 229.86 282.88 C 229.88 288.14 229.93 293.39 229.81 298.65 C 224.43 298.49 219.03 298.92 213.67 298.40 C 213.77 293.22 213.67 288.05 213.75 282.87 Z" />
<path fill="#359ed8" opacity="1.00" d=" M 246.02 282.87 C 251.38 282.82 256.73 282.81 262.09 282.87 C 262.12 288.13 262.26 293.39 261.97 298.65 C 256.68 298.62 251.39 298.60 246.10 298.67 C 245.92 293.40 246.00 288.13 246.02 282.87 Z" />
<path fill="#359ed8" opacity="1.00" d=" M 278.25 282.95 C 283.61 282.74 288.97 282.84 294.34 282.86 C 294.43 288.05 294.33 293.24 294.43 298.42 C 289.06 298.86 283.66 298.54 278.27 298.62 C 278.22 293.40 278.25 288.17 278.25 282.95 Z" />
<path fill="#359ed8" opacity="1.00" d=" M 310.45 283.06 C 315.84 282.67 321.25 282.77 326.64 282.98 C 326.62 288.19 326.65 293.40 326.61 298.61 C 321.24 298.64 315.87 298.65 310.51 298.60 C 310.47 293.42 310.52 288.24 310.45 283.06 Z" />
</g>
<g id="#5aaae0ff">
<path fill="#5aaae0" opacity="1.00" d=" M 13.21 156.51 C 58.51 156.49 103.81 156.50 149.12 156.50 C 149.57 186.00 149.16 215.51 149.30 245.02 C 149.32 277.68 149.29 310.35 149.29 343.01 C 149.36 348.81 149.04 354.63 149.61 360.41 L 149.21 360.87 C 144.35 365.90 140.97 372.86 141.91 379.99 C 142.53 386.37 146.11 392.05 150.89 396.19 C 135.86 402.31 125.29 417.90 125.67 434.20 C 121.28 427.78 114.95 422.91 107.82 419.88 C 112.49 415.84 116.08 410.35 116.78 404.11 C 118.78 389.97 105.18 376.35 91.09 377.75 C 78.63 378.93 67.90 391.04 69.33 403.68 C 69.95 410.07 73.53 415.77 78.35 419.87 C 67.89 424.19 59.40 432.93 55.55 443.58 C 53.41 449.13 52.99 455.14 53.08 461.03 C 53.10 472.69 53.09 484.34 53.09 496.00 C 39.80 496.00 26.50 496.01 13.21 495.99 C 13.22 382.83 13.22 269.67 13.21 156.51 M 44.38 214.96 C 44.37 255.99 44.37 297.02 44.38 338.05 C 49.76 338.08 55.15 338.21 60.54 337.96 C 60.36 295.88 60.71 253.79 60.36 211.72 C 55.10 211.81 49.83 211.83 44.57 211.70 C 44.48 212.78 44.42 213.87 44.38 214.96 M 92.76 211.79 C 92.74 253.89 92.74 295.98 92.76 338.08 C 98.13 338.10 103.50 338.10 108.87 338.08 C 108.89 295.98 108.88 253.89 108.87 211.79 C 103.50 211.77 98.13 211.77 92.76 211.79 Z" />
<path fill="#5aaae0" opacity="1.00" d=" M 358.80 156.51 C 404.53 156.49 450.27 156.50 496.00 156.50 C 496.00 269.67 496.00 382.83 496.00 496.00 C 482.56 496.00 469.13 496.00 455.69 496.00 C 455.61 482.44 455.83 468.87 455.59 455.32 C 455.00 439.90 444.64 425.66 430.42 419.87 C 435.43 415.59 439.08 409.57 439.51 402.90 C 440.46 389.62 428.25 377.26 415.02 377.66 C 403.22 378.08 392.65 388.29 391.82 400.06 C 391.34 407.67 395.09 415.06 400.93 419.81 C 393.86 422.94 387.54 427.75 383.09 434.12 C 383.44 417.85 372.90 402.30 357.90 396.18 C 362.62 392.08 366.18 386.44 366.83 380.14 C 367.84 372.56 364.15 365.06 358.62 360.06 C 358.37 295.04 358.62 230.01 358.49 164.99 C 358.47 162.16 358.62 159.33 358.80 156.51 M 399.22 211.80 C 399.21 253.89 399.21 295.98 399.23 338.08 C 404.59 338.10 409.96 338.10 415.33 338.08 C 415.35 295.98 415.36 253.89 415.33 211.79 C 409.96 211.77 404.59 211.77 399.22 211.80 M 447.64 211.79 C 447.61 253.89 447.61 295.98 447.64 338.08 C 453.01 338.09 458.38 338.12 463.75 338.06 C 463.78 296.00 463.72 253.94 463.79 211.88 C 458.40 211.68 453.02 211.81 447.64 211.79 Z" />
</g>
<g id="#005889ff">
<path fill="#005889" opacity="1.00" d=" M 44.38 214.96 C 44.42 213.87 44.48 212.78 44.57 211.70 C 49.83 211.83 55.10 211.81 60.36 211.72 C 60.71 253.79 60.36 295.88 60.54 337.96 C 55.15 338.21 49.76 338.08 44.38 338.05 C 44.37 297.02 44.37 255.99 44.38 214.96 Z" />
<path fill="#005889" opacity="1.00" d=" M 92.76 211.79 C 98.13 211.77 103.50 211.77 108.87 211.79 C 108.88 253.89 108.89 295.98 108.87 338.08 C 103.50 338.10 98.13 338.10 92.76 338.08 C 92.74 295.98 92.74 253.89 92.76 211.79 Z" />
<path fill="#005889" opacity="1.00" d=" M 399.22 211.80 C 404.59 211.77 409.96 211.77 415.33 211.79 C 415.36 253.89 415.35 295.98 415.33 338.08 C 409.96 338.10 404.59 338.10 399.23 338.08 C 399.21 295.98 399.21 253.89 399.22 211.80 Z" />
<path fill="#005889" opacity="1.00" d=" M 447.64 211.79 C 453.02 211.81 458.40 211.68 463.79 211.88 C 463.72 253.94 463.78 296.00 463.75 338.06 C 458.38 338.12 453.01 338.09 447.64 338.08 C 447.61 295.98 447.61 253.89 447.64 211.79 Z" />
</g>
<g id="#f73445ff">
<path fill="#f73445" opacity="1.00" d=" M 223.24 355.90 C 226.47 341.61 240.15 330.05 254.98 330.34 C 272.48 330.61 287.97 347.42 286.22 364.96 C 284.95 374.46 279.41 383.34 271.35 388.56 C 289.38 395.37 302.33 413.71 302.39 433.04 C 302.51 454.02 302.41 475.01 302.44 496.00 C 270.44 496.00 238.45 496.00 206.45 496.00 C 206.41 476.33 206.46 456.65 206.42 436.98 C 206.41 431.59 206.72 426.13 208.23 420.92 C 212.24 406.35 223.40 393.99 237.52 388.55 C 227.08 381.70 220.27 368.39 223.24 355.90 Z" />
</g>
<g id="#ffc943ff">
<path fill="#ffc943" opacity="1.00" d=" M 149.68 360.42 C 153.71 356.99 158.64 354.42 163.99 354.04 C 177.81 352.88 190.98 366.06 189.42 379.93 C 188.85 386.35 185.22 392.05 180.42 396.20 C 195.09 402.11 205.56 417.12 205.62 432.99 C 205.71 453.99 205.65 475.00 205.64 496.00 C 179.00 496.00 152.36 496.00 125.72 496.00 C 125.58 475.40 125.68 454.80 125.67 434.20 C 125.29 417.90 135.86 402.31 150.89 396.19 C 146.11 392.05 142.53 386.37 141.91 379.99 C 140.97 372.86 144.35 365.90 149.21 360.87 C 149.33 360.75 149.56 360.53 149.68 360.42 Z" />
<path fill="#ffc943" opacity="1.00" d=" M 319.27 375.91 C 320.32 364.47 330.51 354.64 341.98 354.00 C 348.07 353.63 354.02 356.17 358.62 360.06 C 364.15 365.06 367.84 372.56 366.83 380.14 C 366.18 386.44 362.62 392.08 357.90 396.18 C 372.90 402.30 383.44 417.85 383.09 434.12 C 383.09 454.74 383.13 475.37 383.07 496.00 C 356.41 496.00 329.75 496.00 303.09 496.00 C 303.08 476.67 303.11 457.35 303.08 438.02 C 302.91 431.07 303.53 423.92 306.51 417.54 C 310.63 407.87 318.74 400.33 328.28 396.11 C 322.39 391.23 318.60 383.64 319.27 375.91 Z" />
</g>
<g id="#f7f769ff">
<path fill="#f7f769" opacity="1.00" d=" M 69.33 403.68 C 67.90 391.04 78.63 378.93 91.09 377.75 C 105.18 376.35 118.78 389.97 116.78 404.11 C 116.08 410.35 112.49 415.84 107.82 419.88 C 114.95 422.91 121.28 427.78 125.67 434.20 C 125.68 454.80 125.58 475.40 125.72 496.00 C 101.51 496.00 77.30 496.00 53.09 496.00 C 53.09 484.34 53.10 472.69 53.08 461.03 C 52.99 455.14 53.41 449.13 55.55 443.58 C 59.40 432.93 67.89 424.19 78.35 419.87 C 73.53 415.77 69.95 410.07 69.33 403.68 Z" />
<path fill="#f7f769" opacity="1.00" d=" M 391.82 400.06 C 392.65 388.29 403.22 378.08 415.02 377.66 C 428.25 377.26 440.46 389.62 439.51 402.90 C 439.08 409.57 435.43 415.59 430.42 419.87 C 444.64 425.66 455.00 439.90 455.59 455.32 C 455.83 468.87 455.61 482.44 455.69 496.00 C 431.48 496.00 407.27 496.00 383.07 496.00 C 383.13 475.37 383.09 454.74 383.09 434.12 C 387.54 427.75 393.86 422.94 400.93 419.81 C 395.09 415.06 391.34 407.67 391.82 400.06 Z" />
</g>
</svg>
